{
    "asset" : {
        "generator" : "Khronos glTF Blender I/O v3.3.32",
        "version" : "2.0"
    },
    "scene" : 0,
    "scenes" : [
        {
            "name" : "Scene",
            "nodes" : [
                0,
                1,
                2,
                3,
                4,
                5,
                6,
                7,
                8
            ]
        }
    ],
    "nodes" : [
        {
            "mesh" : 0,
            "name" : "low bread"
        },
        {
            "mesh" : 1,
            "name" : "steqk"
        },
        {
            "mesh" : 2,
            "name" : "cheese",
            "scale" : [
                0.07529941946268082,
                0.7529942393302917,
                0.07529941946268082
            ],
            "translation" : [
                -0.0012387748574838042,
                0.03531879186630249,
                0.003075718879699707
            ]
        },
        {
            "mesh" : 3,
            "name" : "Cylinder",
            "scale" : [
                1,
                2.412144422531128,
                1
            ],
            "translation" : [
                -0.027682555839419365,
                0.04151224344968796,
                0.00606131087988615
            ]
        },
        {
            "mesh" : 4,
            "name" : "Cylinder.001",
            "rotation" : [
                -0.0007218012469820678,
                -0.0014436034252867103,
                -0.10338787734508514,
                0.9946398138999939
            ],
            "scale" : [
                1,
                2.412144184112549,
                1
            ],
            "translation" : [
                0.040450289845466614,
                0.04509503394365311,
                0.005985288880765438
            ]
        },
        {
            "mesh" : 5,
            "name" : "Grid"
        },
        {
            "mesh" : 6,
            "name" : "Grid.001",
            "rotation" : [
                -0.11326009035110474,
                0.5995783805847168,
                0.14705707132816315,
                0.7784935235977173
            ],
            "scale" : [
                0.8086502552032471,
                0.8086502552032471,
                0.8086501955986023
            ],
            "translation" : [
                -0.043783172965049744,
                0.06553782522678375,
                -0.011809264309704304
            ]
        },
        {
            "mesh" : 7,
            "name" : "Grid.002",
            "rotation" : [
                -0.1346280723810196,
                -0.9787067174911499,
                -0.021115178242325783,
                0.15350136160850525
            ],
            "scale" : [
                0.8086501955986023,
                0.8086503148078918,
                0.8086503148078918
            ],
            "translation" : [
                0.030892182141542435,
                0.05850332975387573,
                0.022482361644506454
            ]
        },
        {
            "mesh" : 8,
            "name" : "up bread.001",
            "translation" : [
                0.0019863098859786987,
                -0.03969292715191841,
                -0.0009725908748805523
            ]
        }
    ],
    "materials" : [
        {
            "doubleSided" : true,
            "name" : "Material.008",
            "pbrMetallicRoughness" : {
                "baseColorTexture" : {
                    "index" : 0
                },
                "metallicFactor" : 0,
                "roughnessFactor" : 0.5
            }
        },
        {
            "doubleSided" : true,
            "name" : "Material.004",
            "pbrMetallicRoughness" : {
                "baseColorFactor" : [
                    0.05496766418218613,
                    0.013127408921718597,
                    0.009284159168601036,
                    1
                ],
                "metallicFactor" : 0,
                "roughnessFactor" : 0.5
            }
        },
        {
            "doubleSided" : true,
            "name" : "Material.001",
            "pbrMetallicRoughness" : {
                "baseColorFactor" : [
                    0.8000000715255737,
                    0.34000250697135925,
                    0,
                    1
                ],
                "metallicFactor" : 0,
                "roughnessFactor" : 0
            }
        },
        {
            "doubleSided" : true,
            "name" : "Material.006",
            "pbrMetallicRoughness" : {
                "baseColorFactor" : [
                    0.8000000715255737,
                    0,
                    0.015595019795000553,
                    1
                ],
                "metallicFactor" : 0,
                "roughnessFactor" : 0.5
            }
        },
        {
            "doubleSided" : true,
            "name" : "Material.007",
            "pbrMetallicRoughness" : {
                "baseColorTexture" : {
                    "index" : 1
                },
                "metallicFactor" : 0,
                "roughnessFactor" : 0.5
            }
        },
        {
            "doubleSided" : true,
            "name" : "Material.002",
            "pbrMetallicRoughness" : {
                "baseColorTexture" : {
                    "index" : 2
                },
                "metallicFactor" : 0,
                "roughnessFactor" : 0.5
            }
        }
    ],
    "meshes" : [
        {
            "name" : "Cylinder",
            "primitives" : [
                {
                    "attributes" : {
                        "POSITION" : 0,
                        "NORMAL" : 1,
                        "TEXCOORD_0" : 2
                    },
                    "indices" : 3,
                    "material" : 0
                }
            ]
        },
        {
            "name" : "Cylinder.003",
            "primitives" : [
                {
                    "attributes" : {
                        "POSITION" : 4,
                        "NORMAL" : 5,
                        "TEXCOORD_0" : 6
                    },
                    "indices" : 7,
                    "material" : 1
                }
            ]
        },
        {
            "name" : "Plane.002",
            "primitives" : [
                {
                    "attributes" : {
                        "POSITION" : 8,
                        "NORMAL" : 9,
                        "TEXCOORD_0" : 10
                    },
                    "indices" : 11,
                    "material" : 2
                }
            ]
        },
        {
            "name" : "Cylinder.004",
            "primitives" : [
                {
                    "attributes" : {
                        "POSITION" : 12,
                        "NORMAL" : 13,
                        "TEXCOORD_0" : 14
                    },
                    "indices" : 15,
                    "material" : 3
                }
            ]
        },
        {
            "name" : "Cylinder.005",
            "primitives" : [
                {
                    "attributes" : {
                        "POSITION" : 16,
                        "NORMAL" : 17,
                        "TEXCOORD_0" : 18
                    },
                    "indices" : 19,
                    "material" : 3
                }
            ]
        },
        {
            "name" : "Grid",
            "primitives" : [
                {
                    "attributes" : {
                        "POSITION" : 20,
                        "NORMAL" : 21,
                        "TEXCOORD_0" : 22
                    },
                    "indices" : 23,
                    "material" : 4
                }
            ]
        },
        {
            "name" : "Grid.001",
            "primitives" : [
                {
                    "attributes" : {
                        "POSITION" : 24,
                        "NORMAL" : 25,
                        "TEXCOORD_0" : 26
                    },
                    "indices" : 27,
                    "material" : 4
                }
            ]
        },
        {
            "name" : "Grid.002",
            "primitives" : [
                {
                    "attributes" : {
                        "POSITION" : 28,
                        "NORMAL" : 29,
                        "TEXCOORD_0" : 30
                    },
                    "indices" : 31,
                    "material" : 4
                }
            ]
        },
        {
            "name" : "Cylinder.006",
            "primitives" : [
                {
                    "attributes" : {
                        "POSITION" : 32,
                        "NORMAL" : 33,
                        "TEXCOORD_0" : 34
                    },
                    "indices" : 35,
                    "material" : 5
                }
            ]
        }
    ],
    "textures" : [
        {
            "sampler" : 0,
            "source" : 0
        },
        {
            "sampler" : 0,
            "source" : 1
        },
        {
            "sampler" : 0,
            "source" : 2
        }
    ],
    "images" : [
        {
            "mimeType" : "image/png",
            "name" : "Untitled.002",
            "uri" : "Untitled.002.png"
        },
        {
            "mimeType" : "image/png",
            "name" : "Untitled",
            "uri" : "Untitled.png"
        },
        {
            "mimeType" : "image/png",
            "name" : "Untitled.001",
            "uri" : "Untitled.001.png"
        }
    ],
    "accessors" : [
        {
            "bufferView" : 0,
            "componentType" : 5126,
            "count" : 9216,
            "max" : [
                0.09876391291618347,
                0.0119045814499259,
                0.09977971017360687
            ],
            "min" : [
                -0.0986642837524414,
                -0.00993390753865242,
                -0.09842830896377563
            ],
            "type" : "VEC3"
        },
        {
            "bufferView" : 1,
            "componentType" : 5126,
            "count" : 9216,
            "type" : "VEC3"
        },
        {
            "bufferView" : 2,
            "componentType" : 5126,
            "count" : 9216,
            "type" : "VEC2"
        },
        {
            "bufferView" : 3,
            "componentType" : 5123,
            "count" : 13824,
            "type" : "SCALAR"
        },
        {
            "bufferView" : 4,
            "componentType" : 5126,
            "count" : 2816,
            "max" : [
                0.08987298607826233,
                0.032151103019714355,
                0.0947183296084404
            ],
            "min" : [
                -0.08914686739444733,
                0.00995304062962532,
                -0.09396041929721832
            ],
            "type" : "VEC3"
        },
        {
            "bufferView" : 5,
            "componentType" : 5126,
            "count" : 2816,
            "type" : "VEC3"
        },
        {
            "bufferView" : 6,
            "componentType" : 5126,
            "count" : 2816,
            "type" : "VEC2"
        },
        {
            "bufferView" : 7,
            "componentType" : 5123,
            "count" : 4224,
            "type" : "SCALAR"
        },
        {
            "bufferView" : 8,
            "componentType" : 5126,
            "count" : 256,
            "max" : [
                1.0021469593048096,
                -1.893937587738037e-05,
                0.9988011717796326
            ],
            "min" : [
                -1.0018805265426636,
                -0.0238473042845726,
                -1.005995273590088
            ],
            "type" : "VEC3"
        },
        {
            "bufferView" : 9,
            "componentType" : 5126,
            "count" : 256,
            "type" : "VEC3"
        },
        {
            "bufferView" : 10,
            "componentType" : 5126,
            "count" : 256,
            "type" : "VEC2"
        },
        {
            "bufferView" : 11,
            "componentType" : 5123,
            "count" : 384,
            "type" : "SCALAR"
        },
        {
            "bufferView" : 12,
            "componentType" : 5126,
            "count" : 66,
            "max" : [
                0.05000000074505806,
                0.0024999999441206455,
                0.05000000074505806
            ],
            "min" : [
                -0.05000000074505806,
                -0.0024999999441206455,
                -0.05000000074505806
            ],
            "type" : "VEC3"
        },
        {
            "bufferView" : 13,
            "componentType" : 5126,
            "count" : 66,
            "type" : "VEC3"
        },
        {
            "bufferView" : 14,
            "componentType" : 5126,
            "count" : 66,
            "type" : "VEC2"
        },
        {
            "bufferView" : 15,
            "componentType" : 5123,
            "count" : 180,
            "type" : "SCALAR"
        },
        {
            "bufferView" : 16,
            "componentType" : 5126,
            "count" : 96,
            "max" : [
                0.05000000074505806,
                0.0042138961143791676,
                0.05004376918077469
            ],
            "min" : [
                -0.05782715231180191,
                -0.004865884780883789,
                -0.049963437020778656
            ],
            "type" : "VEC3"
        },
        {
            "bufferView" : 17,
            "componentType" : 5126,
            "count" : 96,
            "type" : "VEC3"
        },
        {
            "bufferView" : 18,
            "componentType" : 5126,
            "count" : 96,
            "type" : "VEC2"
        },
        {
            "bufferView" : 19,
            "componentType" : 5123,
            "count" : 180,
            "type" : "SCALAR"
        },
        {
            "bufferView" : 20,
            "componentType" : 5126,
            "count" : 271,
            "max" : [
                0.07818431407213211,
                0.08092517405748367,
                0.05191614478826523
            ],
            "min" : [
                -0.06934664398431778,
                0.04774820804595947,
                -0.09646152704954147
            ],
            "type" : "VEC3"
        },
        {
            "bufferView" : 21,
            "componentType" : 5126,
            "count" : 271,
            "type" : "VEC3"
        },
        {
            "bufferView" : 22,
            "componentType" : 5126,
            "count" : 271,
            "type" : "VEC2"
        },
        {
            "bufferView" : 23,
            "componentType" : 5123,
            "count" : 399,
            "type" : "SCALAR"
        },
        {
            "bufferView" : 24,
            "componentType" : 5126,
            "count" : 271,
            "max" : [
                0.08256682008504868,
                0.002570880576968193,
                0.0833638459444046
            ],
            "min" : [
                -0.06935916095972061,
                -0.04022427648305893,
                -0.06539560854434967
            ],
            "type" : "VEC3"
        },
        {
            "bufferView" : 25,
            "componentType" : 5126,
            "count" : 271,
            "type" : "VEC3"
        },
        {
            "bufferView" : 26,
            "componentType" : 5126,
            "count" : 271,
            "type" : "VEC2"
        },
        {
            "bufferView" : 27,
            "componentType" : 5123,
            "count" : 399,
            "type" : "SCALAR"
        },
        {
            "bufferView" : 28,
            "componentType" : 5126,
            "count" : 271,
            "max" : [
                0.06767084449529648,
                0.0061016324907541275,
                0.08470983803272247
            ],
            "min" : [
                -0.06936383247375488,
                -0.022262992337346077,
                -0.06539560854434967
            ],
            "type" : "VEC3"
        },
        {
            "bufferView" : 29,
            "componentType" : 5126,
            "count" : 271,
            "type" : "VEC3"
        },
        {
            "bufferView" : 30,
            "componentType" : 5126,
            "count" : 271,
            "type" : "VEC2"
        },
        {
            "bufferView" : 31,
            "componentType" : 5123,
            "count" : 399,
            "type" : "SCALAR"
        },
        {
            "bufferView" : 32,
            "componentType" : 5126,
            "count" : 3840,
            "max" : [
                0.10019832849502563,
                0.1474069058895111,
                0.1004011258482933
            ],
            "min" : [
                -0.09511987119913101,
                0.09034350514411926,
                -0.096925288438797
            ],
            "type" : "VEC3"
        },
        {
            "bufferView" : 33,
            "componentType" : 5126,
            "count" : 3840,
            "type" : "VEC3"
        },
        {
            "bufferView" : 34,
            "componentType" : 5126,
            "count" : 3840,
            "type" : "VEC2"
        },
        {
            "bufferView" : 35,
            "componentType" : 5123,
            "count" : 5760,
            "type" : "SCALAR"
        }
    ],
    "bufferViews" : [
        {
            "buffer" : 0,
            "byteLength" : 110592,
            "byteOffset" : 0,
            "target" : 34962
        },
        {
            "buffer" : 0,
            "byteLength" : 110592,
            "byteOffset" : 110592,
            "target" : 34962
        },
        {
            "buffer" : 0,
            "byteLength" : 73728,
            "byteOffset" : 221184,
            "target" : 34962
        },
        {
            "buffer" : 0,
            "byteLength" : 27648,
            "byteOffset" : 294912,
            "target" : 34963
        },
        {
            "buffer" : 0,
            "byteLength" : 33792,
            "byteOffset" : 322560,
            "target" : 34962
        },
        {
            "buffer" : 0,
            "byteLength" : 33792,
            "byteOffset" : 356352,
            "target" : 34962
        },
        {
            "buffer" : 0,
            "byteLength" : 22528,
            "byteOffset" : 390144,
            "target" : 34962
        },
        {
            "buffer" : 0,
            "byteLength" : 8448,
            "byteOffset" : 412672,
            "target" : 34963
        },
        {
            "buffer" : 0,
            "byteLength" : 3072,
            "byteOffset" : 421120,
            "target" : 34962
        },
        {
            "buffer" : 0,
            "byteLength" : 3072,
            "byteOffset" : 424192,
            "target" : 34962
        },
        {
            "buffer" : 0,
            "byteLength" : 2048,
            "byteOffset" : 427264,
            "target" : 34962
        },
        {
            "buffer" : 0,
            "byteLength" : 768,
            "byteOffset" : 429312,
            "target" : 34963
        },
        {
            "buffer" : 0,
            "byteLength" : 792,
            "byteOffset" : 430080,
            "target" : 34962
        },
        {
            "buffer" : 0,
            "byteLength" : 792,
            "byteOffset" : 430872,
            "target" : 34962
        },
        {
            "buffer" : 0,
            "byteLength" : 528,
            "byteOffset" : 431664,
            "target" : 34962
        },
        {
            "buffer" : 0,
            "byteLength" : 360,
            "byteOffset" : 432192,
            "target" : 34963
        },
        {
            "buffer" : 0,
            "byteLength" : 1152,
            "byteOffset" : 432552,
            "target" : 34962
        },
        {
            "buffer" : 0,
            "byteLength" : 1152,
            "byteOffset" : 433704,
            "target" : 34962
        },
        {
            "buffer" : 0,
            "byteLength" : 768,
            "byteOffset" : 434856,
            "target" : 34962
        },
        {
            "buffer" : 0,
            "byteLength" : 360,
            "byteOffset" : 435624,
            "target" : 34963
        },
        {
            "buffer" : 0,
            "byteLength" : 3252,
            "byteOffset" : 435984,
            "target" : 34962
        },
        {
            "buffer" : 0,
            "byteLength" : 3252,
            "byteOffset" : 439236,
            "target" : 34962
        },
        {
            "buffer" : 0,
            "byteLength" : 2168,
            "byteOffset" : 442488,
            "target" : 34962
        },
        {
            "buffer" : 0,
            "byteLength" : 798,
            "byteOffset" : 444656,
            "target" : 34963
        },
        {
            "buffer" : 0,
            "byteLength" : 3252,
            "byteOffset" : 445456,
            "target" : 34962
        },
        {
            "buffer" : 0,
            "byteLength" : 3252,
            "byteOffset" : 448708,
            "target" : 34962
        },
        {
            "buffer" : 0,
            "byteLength" : 2168,
            "byteOffset" : 451960,
            "target" : 34962
        },
        {
            "buffer" : 0,
            "byteLength" : 798,
            "byteOffset" : 454128,
            "target" : 34963
        },
        {
            "buffer" : 0,
            "byteLength" : 3252,
            "byteOffset" : 454928,
            "target" : 34962
        },
        {
            "buffer" : 0,
            "byteLength" : 3252,
            "byteOffset" : 458180,
            "target" : 34962
        },
        {
            "buffer" : 0,
            "byteLength" : 2168,
            "byteOffset" : 461432,
            "target" : 34962
        },
        {
            "buffer" : 0,
            "byteLength" : 798,
            "byteOffset" : 463600,
            "target" : 34963
        },
        {
            "buffer" : 0,
            "byteLength" : 46080,
            "byteOffset" : 464400,
            "target" : 34962
        },
        {
            "buffer" : 0,
            "byteLength" : 46080,
            "byteOffset" : 510480,
            "target" : 34962
        },
        {
            "buffer" : 0,
            "byteLength" : 30720,
            "byteOffset" : 556560,
            "target" : 34962
        },
        {
            "buffer" : 0,
            "byteLength" : 11520,
            "byteOffset" : 587280,
            "target" : 34963
        }
    ],
    "samplers" : [
        {
            "magFilter" : 9729,
            "minFilter" : 9987
        }
    ],
    "buffers" : [
        {
            "byteLength" : 598800,
            "uri" : "burger.bin"
        }
    ]
}
